<?xml version="1.0" encoding="iso-8859-1"?>
<!-- Generator: Adobe Illustrator 19.0.0, SVG Export Plug-In . SVG Version: 6.00 Build 0)  -->
<svg version="1.1" id="Layer_1" xmlns="http://www.w3.org/2000/svg" xmlns:xlink="http://www.w3.org/1999/xlink" x="0px" y="0px"
	 viewBox="0 0 265.621 265.621" style="enable-background:new 0 0 265.621 265.621;" xml:space="preserve">
<g>
	<polygon style="fill:#28D2E4;" points="94.574,117.677 31.209,54.313 86.008,13.656 135.23,62.88 	"/>
	<path style="fill:#13829B;" d="M137.298,11.589L137.298,11.589c-5.467-5.467-14.332-5.467-19.799,0L100.72,28.368l19.799,19.799
		l16.779-16.779C142.765,25.922,142.765,17.056,137.298,11.589z"/>
	<path style="fill:#FFDB77;" d="M46.517,102.37c9.044,9.044,23.707,9.044,32.75,0l-32.75-32.75
		C37.473,78.663,37.473,93.326,46.517,102.37z"/>
	<path style="fill:#13829B;" d="M198.495,258.122h-98.172l0,0c0-19.882,16.118-36,36-36h26.172
		C182.377,222.121,198.495,238.24,198.495,258.122L198.495,258.122z"/>
	<g>
		<circle style="fill:#28D2E4;" cx="212.409" cy="139.677" r="22"/>
		<path style="fill:#22313F;" d="M195.575,115.472L140.429,68.46l0.825-1.112c2.215-2.985,1.908-7.144-0.72-9.772l-9.408-9.408
			l11.475-11.476c8.403-8.401,8.404-22.002,0.001-30.406c-0.001,0-0.001,0-0.001,0c-8.384-8.384-22.023-8.38-30.405,0
			l-11.477,11.475l-9.408-9.408c-2.631-2.629-6.788-2.935-9.773-0.72L26.741,48.29c-3.68,2.73-4.067,8.093-0.835,11.327
			l10.662,10.662c-7.025,11.77-5.479,27.271,4.645,37.395v0.001c10.358,10.356,25.905,11.548,37.405,4.653l10.653,10.653
			c3.231,3.229,8.592,2.852,11.327-0.835l30.874-41.613l54.362,46.344c-4.764,9.85-3.747,21.854,3.306,30.9l-43.438,56.844h-9.378
			c-23.986,0-43.5,19.514-43.5,43.5c0,4.143,3.357,7.5,7.5,7.5h98.172c4.143,0,7.5-3.357,7.5-7.5
			c0-23.301-18.415-42.376-41.456-43.448l36.508-47.774c19.396,8.126,40.862-6.231,40.862-27.222
			C241.909,115.882,215.033,101.898,195.575,115.472z M122.802,16.893c2.532-2.535,6.656-2.537,9.192,0
			c2.539,2.539,2.541,6.651-0.001,9.191l-11.474,11.476l-9.192-9.192L122.802,16.893z M51.82,97.067L51.82,97.067
			c-4.184-4.185-5.501-10.168-3.949-15.485l19.435,19.434C61.988,102.569,56.004,101.252,51.82,97.067z M93.73,106.227
			c-3.245-3.245-2.569-2.571-51.07-51.07l42.62-31.621c1.977,1.977,5.684,5.685,40.071,40.071L93.73,106.227z M189.994,250.621
			h-81.17c3.301-12.089,14.379-21,27.499-21h26.172C175.615,229.621,186.693,238.533,189.994,250.621z M212.409,154.177
			c-7.995,0-14.5-6.505-14.5-14.5s6.505-14.5,14.5-14.5s14.5,6.505,14.5,14.5C226.909,147.673,220.404,154.177,212.409,154.177z"/>
	</g>
</g>
<g>
</g>
<g>
</g>
<g>
</g>
<g>
</g>
<g>
</g>
<g>
</g>
<g>
</g>
<g>
</g>
<g>
</g>
<g>
</g>
<g>
</g>
<g>
</g>
<g>
</g>
<g>
</g>
<g>
</g>
</svg>
