<?xml version="1.0" encoding="iso-8859-1"?>
<!-- Generator: Adobe Illustrator 19.0.0, SVG Export Plug-In . SVG Version: 6.00 Build 0)  -->
<svg version="1.1" id="Layer_1" xmlns="http://www.w3.org/2000/svg" xmlns:xlink="http://www.w3.org/1999/xlink" x="0px" y="0px"
	 viewBox="0 0 267.037 267.037" style="enable-background:new 0 0 267.037 267.037;" xml:space="preserve">
<g>
	<path style="fill:#28D2E4;" d="M239.083,7.513l-141.31,166l-60.918-14.567c-9.971-2.384-12.169-15.585-3.509-21.072L239.083,7.513z
		"/>
	<path style="fill:#28D2E4;" d="M239.083,7.513l-52.324,242.858c-2.031,9.426-14.011,12.4-20.213,5.016l-33.533-39.915l-35.24-41.96
		L239.083,7.513z"/>
	<g>
		<polygon style="fill:#13829B;" points="133.013,215.473 93.363,249.643 97.773,173.513 		"/>
		<path style="fill:#22313F;" d="M235.068,1.178L29.331,131.538c-14.281,9.049-10.631,30.779,5.779,34.701l54.812,13.107
			l-4.047,69.862c-0.384,6.623,7.407,10.405,12.383,6.115l33.9-29.214l28.644,34.101c10.23,12.178,29.95,7.233,33.289-8.26
			L246.414,9.093C247.835,2.559,240.61-2.349,235.068,1.178z M37.36,144.208l163.93-103.87
			c-1.203,1.413-103.453,121.528-106.247,124.811L38.599,151.65C35.069,150.807,34.29,146.154,37.36,144.208z M101.874,232.407
			l2.295-39.617l18.338,21.835L101.874,232.407z M179.427,248.791c-0.719,3.338-4.944,4.383-7.14,1.771l-64.693-77.017
			L225.473,35.07L179.427,248.791z"/>
	</g>
</g>
<g>
</g>
<g>
</g>
<g>
</g>
<g>
</g>
<g>
</g>
<g>
</g>
<g>
</g>
<g>
</g>
<g>
</g>
<g>
</g>
<g>
</g>
<g>
</g>
<g>
</g>
<g>
</g>
<g>
</g>
</svg>
